<svg xmlns="http://www.w3.org/2000/svg" xmlns:xlink="http://www.w3.org/1999/xlink" width="300" height="100" viewBox="0 0 300 100"><defs><clipPath id="b"><rect width="300" height="100"/></clipPath></defs><g id="a" clip-path="url(#b)"><g fill="#eff6ff" stroke="#0046d1" stroke-linecap="round" stroke-linejoin="bevel" stroke-width="2"><rect width="300" height="100" stroke="none"/><rect x="1" y="1" width="298" height="98" fill="none"/></g><text transform="translate(10 45)" fill="#222" font-size="27" font-family="Montserrat-SemiBold, Montserrat" font-weight="600" letter-spacing="-0.02em"><tspan x="0" y="0">Check our</tspan><tspan x="0" y="29">documentation</tspan></text><path d="M-1796.414-2962.8l22.766-23.934h23.725l14.8,15.556v41.861h-34.891Z" transform="translate(2032.928 3027.4)" fill="#fff"/><g transform="translate(198.396 91.261) rotate(-41)"><g transform="translate(44.944)"><g transform="translate(0)"><path d="M99.273,18.395,83.222.444A1.287,1.287,0,0,0,82.264,0H51.528c-3.63,0-6.584,3.3-6.584,7.363V66.874c0,4.06,2.953,7.363,6.584,7.363H93.086c3.63,0,6.584-3.3,6.584-7.363V19.466A1.612,1.612,0,0,0,99.273,18.395ZM83.619,5.173,95.045,17.951H87.494a3.656,3.656,0,0,1-2.74-1.269,4.575,4.575,0,0,1-1.135-3.064Zm13.341,61.7a4.128,4.128,0,0,1-3.874,4.333H51.528a4.128,4.128,0,0,1-3.875-4.333V7.363A4.128,4.128,0,0,1,51.528,3.03H80.91V13.618a7.775,7.775,0,0,0,1.928,5.207,6.211,6.211,0,0,0,4.656,2.157H96.96V66.874Z" transform="translate(-44.944 0)" fill="#0046d1"/></g></g><g transform="translate(72.821 50.964)"><g transform="translate(0)"><path d="M261.926,351.492h-.607a1.525,1.525,0,0,0,0,3.03h.607a1.525,1.525,0,0,0,0-3.03Z" transform="translate(-259.965 -351.492)" fill="#0046d1"/></g></g><g transform="translate(55.28 50.964)"><path d="M139.182,351.492H126.024a1.525,1.525,0,0,0,0,3.03h13.158a1.525,1.525,0,0,0,0-3.03Z" transform="translate(-124.669 -351.492)" fill="#0046d1"/></g><g transform="translate(55.28 44.042)"><g transform="translate(0)"><path d="M157.369,303.747H126.025a1.525,1.525,0,0,0,0,3.03h31.344a1.525,1.525,0,0,0,0-3.03Z" transform="translate(-124.67 -303.747)" fill="#0046d1"/></g></g><g transform="translate(55.28 37.119)"><g transform="translate(0)"><path d="M157.369,256H126.025a1.525,1.525,0,0,0,0,3.03h31.344a1.525,1.525,0,0,0,0-3.03Z" transform="translate(-124.67 -256)" fill="#0046d1"/></g></g><g transform="translate(55.28 30.196)"><g transform="translate(0)"><path d="M157.369,208.255H126.025a1.525,1.525,0,0,0,0,3.03h31.344a1.525,1.525,0,0,0,0-3.03Z" transform="translate(-124.67 -208.255)" fill="#0046d1"/></g></g></g></g></svg>