<svg id="Capa_1" data-name="Capa 1" xmlns="http://www.w3.org/2000/svg" viewBox="0 0 367.94 368.4"><defs><style>.cls-1{fill:#cce4ff;}.cls-2,.cls-3{fill:#2a65ea;}.cls-3{stroke:#265fc4;stroke-miterlimit:10;}</style></defs><title>perform</title><polygon class="cls-1" points="360 7.9 248 359.9 175.6 192.3 360 7.9"/><path class="cls-2" d="M5.14,135.39l164.46,63.19L240.66,363.1a8,8,0,0,0,7.34,4.82h.4a8,8,0,0,0,7.22-5.56l112-352a7.6,7.6,0,0,0,.16-1.11,7.19,7.19,0,0,0,.15-1.1,7.8,7.8,0,0,0-.3-2.28c0-.17,0-.34-.06-.51s0-.06,0-.09a8.06,8.06,0,0,0-1.46-2.52,7.5,7.5,0,0,0-.71-.62,7.67,7.67,0,0,0-1.18-1c-.11-.06-.24-.08-.35-.14a7.94,7.94,0,0,0-1-.42,8,8,0,0,0-1.7-.46A7.3,7.3,0,0,0,360,0a7.87,7.87,0,0,0-1.88.25c-.22.06-.43,0-.65.08l-352,120a8,8,0,0,0-.3,15ZM246.86,337.11l-61.76-143L342.4,36.82ZM330,26.59,173.63,183,31.48,128.37Z" transform="translate(0 -0.02)"/><path class="cls-2" d="M9.19,367.92a9.2,9.2,0,0,0,6.5-2.67L144.31,237.57a9.06,9.06,0,0,0,0-12.9,9.22,9.22,0,0,0-13,0L2.69,352.35a9.06,9.06,0,0,0,0,12.9A9.2,9.2,0,0,0,9.19,367.92Z" transform="translate(0 -0.02)"/><path class="cls-3" d="M146.35,298.26l-56,56a8,8,0,1,0,11.31,11.31l56-56a8,8,0,0,0-11.31-11.31Z" transform="translate(0 -0.02)"/><path class="cls-2" d="M8,279.92a8,8,0,0,0,5.66-2.34l56-56a8,8,0,0,0-11.31-11.31l-56,56A8,8,0,0,0,8,279.92Z" transform="translate(0 -0.02)"/></svg>